<svg xmlns="http://www.w3.org/2000/svg" xmlns:xlink="http://www.w3.org/1999/xlink" width="500" zoomAndPan="magnify" viewBox="0 0 375 262.499992" height="350" preserveAspectRatio="xMidYMid meet" version="1.0"><path fill="#c5b386" d="M 156.449219 13.382812 L 172.492188 13.382812 L 170.242188 17.886719 L 169.113281 22.671875 L 168.550781 29.144531 L 168.550781 31.113281 L 175.304688 29.144531 L 179.527344 28.300781 L 184.875 27.738281 L 191.066406 27.738281 L 197.820312 28.582031 L 203.730469 29.988281 L 208.796875 31.679688 L 212.457031 33.367188 L 213.582031 33.367188 L 215.550781 31.113281 L 219.492188 26.894531 L 221.464844 24.640625 L 223.996094 21.265625 L 225.683594 17.605469 L 225.964844 16.761719 L 225.964844 13.664062 L 225.402344 13.382812 L 236.097656 13.382812 L 234.691406 14.507812 L 231.59375 16.480469 L 227.65625 19.574219 L 223.433594 23.515625 L 221.464844 25.765625 L 218.085938 29.425781 L 215.550781 32.242188 L 214.144531 34.210938 L 218.648438 36.742188 L 223.996094 40.683594 L 227.9375 44.34375 L 229.34375 54.195312 L 229.34375 55.882812 L 228.21875 54.476562 L 225.121094 50.535156 L 221.746094 46.59375 L 218.085938 42.9375 L 214.144531 39.839844 L 211.050781 37.589844 L 209.359375 38.996094 L 207.390625 41.246094 L 204.011719 44.90625 L 201.480469 47.71875 L 198.382812 51.097656 L 195.851562 53.910156 L 192.753906 57.289062 L 190.222656 60.105469 L 187.125 63.480469 L 184.59375 66.296875 L 181.496094 69.671875 L 179.246094 72.207031 L 179.808594 73.332031 L 181.78125 75.582031 L 185.15625 79.242188 L 190.222656 84.871094 L 193.320312 88.25 L 195.289062 90.5 L 198.667969 94.160156 L 200.636719 96.410156 L 204.011719 100.070312 L 205.984375 102.320312 L 209.359375 105.980469 L 211.332031 108.230469 L 214.707031 111.890625 L 219.773438 117.519531 L 222.871094 120.894531 L 225.121094 123.429688 L 226.527344 122.867188 L 229.34375 119.769531 L 232.71875 115.265625 L 235.535156 110.203125 L 237.503906 105.417969 L 238.066406 104.007812 L 239.757812 104.007812 L 238.914062 106.542969 L 236.378906 111.328125 L 233.566406 115.546875 L 230.46875 119.488281 L 227.09375 123.148438 L 226.246094 123.992188 L 226.527344 125.117188 L 228.5 127.089844 L 230.46875 129.339844 L 233.566406 132.71875 L 238.632812 138.347656 L 240.601562 140.597656 L 246.792969 145.664062 L 251.859375 149.039062 L 252.421875 149.605469 L 232.15625 149.605469 L 232.4375 148.757812 L 232.4375 146.507812 L 231.3125 143.128906 L 229.0625 139.472656 L 225.683594 135.53125 L 221.179688 130.746094 L 219.773438 129.339844 L 215.269531 132.152344 L 211.050781 134.40625 L 204.292969 136.9375 L 198.667969 138.347656 L 192.191406 139.191406 L 184.03125 139.191406 L 177.839844 138.347656 L 173.054688 137.21875 L 168.832031 135.8125 L 169.113281 139.753906 L 170.242188 144.539062 L 171.648438 147.914062 L 172.773438 149.605469 L 156.449219 149.605469 L 158.699219 145.101562 L 159.828125 140.878906 L 160.390625 136.65625 L 160.390625 131.871094 L 155.324219 128.496094 L 152.226562 125.960938 L 148.851562 122.867188 L 146.597656 120.613281 L 143.503906 116.675781 L 141.53125 113.859375 L 138.71875 109.074219 L 136.1875 103.445312 L 133.933594 96.128906 L 132.808594 89.375 L 132.527344 85.152344 L 132.527344 81.492188 L 133.089844 75.300781 L 134.214844 69.671875 L 135.902344 64.042969 L 138.15625 58.976562 L 140.6875 54.195312 L 144.066406 49.410156 L 146.597656 46.3125 L 151.945312 40.964844 L 156.730469 37.308594 L 160.390625 35.054688 L 160.390625 26.332031 L 159.546875 20.703125 L 158.417969 17.042969 L 157.011719 14.226562 Z M 181.214844 29.144531 L 175.023438 29.988281 L 170.804688 31.113281 L 168.269531 31.960938 L 168.269531 82.621094 L 170.242188 80.929688 L 174.179688 76.710938 L 176.714844 73.894531 L 180.089844 70.234375 L 182.625 67.421875 L 186 63.761719 L 192.191406 57.007812 L 194.726562 54.195312 L 198.101562 50.535156 L 207.390625 40.402344 L 209.921875 37.589844 L 210.207031 36.742188 L 205.703125 34.210938 L 200.355469 31.960938 L 194.726562 30.269531 L 190.222656 29.425781 L 187.125 29.144531 Z M 160.390625 35.617188 L 155.324219 38.996094 L 152.507812 41.246094 L 149.695312 43.78125 L 146.878906 46.59375 L 144.066406 50.253906 L 141.8125 53.910156 L 139.5625 58.414062 L 137.875 62.917969 L 136.75 67.421875 L 135.902344 74.175781 L 135.902344 79.804688 L 136.46875 85.433594 L 137.875 91.90625 L 140.125 98.660156 L 142.941406 104.855469 L 146.597656 111.046875 L 149.976562 115.546875 L 153.070312 119.207031 L 155.886719 122.304688 L 160.390625 126.242188 L 160.671875 126.242188 L 160.671875 35.617188 Z M 173.054688 78.679688 L 171.085938 80.929688 L 168.269531 84.027344 L 168.269531 131.308594 L 171.085938 133 L 176.714844 135.25 L 181.496094 136.65625 L 186.28125 137.5 L 189.378906 137.78125 L 194.726562 137.78125 L 201.199219 136.9375 L 207.109375 135.25 L 211.332031 133.5625 L 217.242188 130.464844 L 219.492188 128.777344 L 217.804688 126.523438 L 214.707031 123.429688 L 212.738281 121.175781 L 209.359375 117.519531 L 200.074219 107.386719 L 196.695312 103.726562 L 193.601562 100.351562 L 191.066406 97.535156 L 184.3125 90.21875 L 181.78125 87.402344 L 177.839844 83.183594 L 175.304688 80.367188 L 173.898438 78.679688 Z M 173.054688 78.679688 " fill-opacity="1" fill-rule="nonzero"/><path fill="#c5b386" d="M 68.921875 167.335938 L 77.363281 167.335938 L 77.363281 167.617188 L 74.269531 168.460938 L 72.859375 169.585938 L 70.328125 172.683594 L 67.511719 175.777344 L 64.980469 178.875 L 63.855469 180 L 64.136719 181.125 L 67.511719 185.066406 L 70.046875 188.160156 L 72.578125 190.976562 L 74.550781 193.507812 L 76.519531 194.636719 L 79.050781 194.636719 L 80.460938 193.507812 L 84.398438 185.347656 L 88.058594 177.46875 L 90.589844 171.554688 L 90.875 170.710938 L 91.4375 170.710938 L 96.785156 182.53125 L 101.285156 192.664062 L 102.976562 194.636719 L 104.664062 195.199219 L 104.664062 195.480469 L 96.503906 195.480469 L 96.785156 194.917969 L 97.910156 194.355469 L 97.910156 192.382812 L 95.9375 187.597656 L 85.808594 187.597656 L 83.554688 192.945312 L 83.835938 194.355469 L 85.246094 195.199219 L 85.246094 195.480469 L 74.550781 195.480469 L 72.015625 194.636719 L 70.046875 192.945312 L 67.511719 189.851562 L 64.417969 186.191406 L 62.164062 183.378906 L 60.757812 181.40625 L 63.574219 177.75 L 67.230469 173.246094 L 70.328125 169.304688 L 70.328125 168.179688 L 68.921875 167.617188 Z M 90.875 175.214844 L 89.746094 177.46875 L 86.371094 185.628906 L 86.371094 186.191406 L 95.375 186.191406 L 94.53125 183.378906 L 91.15625 175.214844 Z M 90.875 175.214844 " fill-opacity="1" fill-rule="nonzero"/><path fill="#c5b386" d="M 264.804688 170.710938 L 265.648438 171.554688 L 270.152344 181.40625 L 273.8125 189.570312 L 276.0625 194.070312 L 276.90625 194.636719 L 278.597656 195.199219 L 278.597656 195.480469 L 270.152344 195.480469 L 270.714844 194.917969 L 271.558594 194.636719 L 271.839844 192.664062 L 269.871094 187.878906 L 269.871094 187.316406 L 259.457031 187.316406 L 258.613281 189.851562 L 257.488281 192.664062 L 257.769531 194.636719 L 259.175781 195.199219 L 259.175781 195.480469 L 251.296875 195.480469 L 251.578125 194.917969 L 253.546875 194.355469 L 254.953125 192.382812 L 263.960938 172.964844 Z M 264.523438 175.214844 L 260.863281 183.941406 L 260.300781 185.347656 L 260.300781 186.191406 L 269.027344 186.191406 L 268.746094 184.503906 L 265.085938 175.496094 Z M 264.523438 175.214844 " fill-opacity="1" fill-rule="nonzero"/><path fill="#c5b386" d="M 219.492188 170.710938 L 220.335938 171.554688 L 225.121094 181.96875 L 229.625 192.101562 L 230.75 194.070312 L 231.59375 194.636719 L 233.285156 195.199219 L 233.285156 195.480469 L 225.121094 195.480469 L 225.402344 194.917969 L 226.527344 194.355469 L 226.246094 191.820312 L 224.558594 187.878906 L 224.558594 187.316406 L 214.144531 187.316406 L 213.863281 188.726562 L 212.175781 192.664062 L 212.457031 194.636719 L 213.863281 195.199219 L 213.863281 195.480469 L 206.265625 195.480469 L 206.546875 194.917969 L 208.515625 194.070312 L 209.921875 191.820312 L 213.863281 183.378906 L 218.648438 172.964844 Z M 219.210938 175.496094 L 214.988281 185.347656 L 214.988281 186.191406 L 223.996094 186.191406 L 223.152344 183.660156 L 219.773438 175.496094 Z M 219.210938 175.496094 " fill-opacity="1" fill-rule="nonzero"/><path fill="#c5b386" d="M 154.480469 170.710938 L 155.042969 170.992188 L 159.546875 181.125 L 163.203125 189.007812 L 165.175781 193.226562 L 166.582031 194.636719 L 167.988281 195.199219 L 167.988281 195.480469 L 159.828125 195.480469 L 160.109375 194.917969 L 161.234375 194.636719 L 161.515625 192.945312 L 159.546875 188.160156 L 159.546875 187.316406 L 149.132812 187.316406 L 148.289062 189.851562 L 147.160156 192.382812 L 147.160156 194.355469 L 148.570312 195.199219 L 148.570312 195.480469 L 140.96875 195.480469 L 141.25 194.917969 L 142.941406 194.355469 L 144.066406 193.226562 L 147.726562 185.628906 L 151.382812 177.75 L 153.917969 172.121094 Z M 154.199219 175.214844 L 149.976562 185.066406 L 149.976562 186.191406 L 158.699219 186.191406 L 158.417969 184.503906 L 154.761719 175.496094 Z M 154.199219 175.214844 " fill-opacity="1" fill-rule="nonzero"/><path fill="#c5b386" d="M 191.347656 170.710938 L 195.289062 170.710938 L 199.511719 171.554688 L 202.605469 172.964844 L 203.167969 175.496094 L 203.449219 178.875 L 202.886719 178.3125 L 201.480469 175.496094 L 200.074219 174.089844 L 197.257812 172.683594 L 192.753906 172.121094 L 189.378906 172.683594 L 186.84375 174.089844 L 184.59375 176.621094 L 183.46875 179.4375 L 183.1875 180.84375 L 183.1875 185.910156 L 184.3125 189.570312 L 186 191.820312 L 188.253906 193.507812 L 190.503906 194.355469 L 193.882812 194.636719 L 197.539062 194.070312 L 200.074219 192.945312 L 202.324219 190.976562 L 203.730469 188.160156 L 204.292969 185.347656 L 204.859375 185.347656 L 204.578125 189.570312 L 204.011719 191.539062 L 202.042969 193.507812 L 198.101562 195.480469 L 195.289062 196.042969 L 191.066406 196.042969 L 187.410156 195.199219 L 184.3125 193.507812 L 182.34375 191.539062 L 180.371094 187.597656 L 180.089844 186.191406 L 180.089844 180.5625 L 180.933594 177.75 L 182.625 174.933594 L 185.15625 172.683594 L 188.253906 171.273438 Z M 191.347656 170.710938 " fill-opacity="1" fill-rule="nonzero"/><path fill="#c5b386" d="M 296.046875 170.710938 L 296.890625 170.710938 L 296.890625 175.214844 L 296.328125 175.214844 L 295.765625 173.246094 L 295.199219 172.964844 L 285.914062 172.683594 L 285.914062 182.8125 L 294.074219 182.53125 L 294.355469 180.5625 L 294.917969 180.5625 L 294.917969 186.191406 L 294.355469 186.191406 L 293.792969 184.503906 L 293.511719 184.222656 L 285.914062 183.941406 L 286.195312 194.070312 L 292.667969 194.070312 L 295.199219 193.507812 L 296.890625 192.382812 L 298.578125 189.851562 L 298.859375 190.695312 L 296.890625 195.480469 L 280.566406 195.480469 L 281.128906 194.917969 L 282.535156 194.355469 L 283.097656 193.789062 L 283.097656 172.964844 L 282.253906 172.121094 L 280.566406 171.839844 L 280.566406 171.273438 L 294.636719 170.992188 Z M 296.046875 170.710938 " fill-opacity="1" fill-rule="nonzero"/><path fill="#c5b386" d="M 241.445312 170.710938 L 244.824219 170.710938 L 247.636719 170.992188 L 247.917969 172.402344 L 247.917969 175.496094 L 247.355469 175.496094 L 246.511719 173.246094 L 245.105469 172.402344 L 242.289062 172.121094 L 239.757812 172.964844 L 238.347656 174.371094 L 238.066406 176.339844 L 238.914062 178.3125 L 242.007812 180.84375 L 245.667969 183.660156 L 248.480469 185.910156 L 249.324219 187.597656 L 249.324219 191.257812 L 248.199219 193.507812 L 246.230469 195.199219 L 243.695312 196.042969 L 240.320312 196.042969 L 236.941406 195.199219 L 235.253906 194.070312 L 235.253906 190.414062 L 235.816406 189.007812 L 236.097656 189.007812 L 236.941406 192.382812 L 238.347656 193.789062 L 240.601562 194.636719 L 242.570312 194.636719 L 245.386719 193.789062 L 246.792969 192.101562 L 247.074219 190.132812 L 246.511719 188.160156 L 243.695312 185.628906 L 239.195312 182.25 L 236.660156 180 L 235.816406 178.03125 L 235.816406 175.214844 L 236.941406 172.964844 L 239.476562 171.273438 Z M 241.445312 170.710938 " fill-opacity="1" fill-rule="nonzero"/><path fill="#c5b386" d="M 308.429688 170.710938 L 312.085938 170.710938 L 314.902344 170.992188 L 315.183594 175.496094 L 314.621094 175.496094 L 313.777344 173.246094 L 312.371094 172.402344 L 309.554688 172.121094 L 307.023438 172.964844 L 305.613281 174.371094 L 305.332031 176.621094 L 306.175781 178.3125 L 309.554688 181.125 L 312.933594 183.660156 L 315.746094 185.910156 L 316.589844 187.597656 L 316.589844 191.257812 L 315.464844 193.507812 L 312.933594 195.480469 L 310.960938 196.042969 L 307.585938 196.042969 L 304.207031 195.199219 L 302.519531 194.070312 L 302.519531 190.414062 L 303.082031 189.007812 L 303.363281 189.007812 L 304.207031 192.382812 L 305.613281 193.789062 L 307.867188 194.636719 L 309.835938 194.636719 L 312.371094 193.789062 L 313.777344 192.382812 L 314.058594 191.820312 L 314.058594 189.007812 L 313.214844 187.597656 L 309.835938 184.785156 L 305.332031 181.40625 L 303.644531 179.4375 L 303.082031 178.03125 L 303.082031 175.214844 L 304.207031 172.964844 L 306.457031 171.273438 Z M 308.429688 170.710938 " fill-opacity="1" fill-rule="nonzero"/><path fill="#c5b386" d="M 104.945312 170.710938 L 107.476562 170.992188 L 124.929688 170.992188 L 127.179688 170.710938 L 127.179688 175.214844 L 126.617188 175.214844 L 126.054688 173.246094 L 125.210938 172.683594 L 117.609375 172.683594 L 117.609375 193.226562 L 118.171875 194.355469 L 120.144531 195.199219 L 120.144531 195.480469 L 111.980469 195.480469 L 112.542969 194.917969 L 113.953125 194.355469 L 114.515625 193.507812 L 114.796875 172.402344 L 106.914062 172.683594 L 105.789062 173.808594 L 105.507812 175.214844 L 104.945312 175.214844 Z M 104.945312 170.710938 " fill-opacity="1" fill-rule="nonzero"/><path fill="#c5b386" d="M 53.722656 167.335938 L 62.449219 167.335938 L 61.320312 167.898438 L 59.914062 169.023438 L 59.632812 169.867188 L 59.632812 192.945312 L 60.476562 194.355469 L 62.449219 194.917969 L 62.449219 195.480469 L 53.722656 195.480469 L 54.285156 194.917969 L 55.972656 194.355469 L 56.535156 193.507812 L 56.535156 169.304688 L 55.691406 168.179688 L 53.722656 167.617188 Z M 53.722656 167.335938 " fill-opacity="1" fill-rule="nonzero"/><path fill="#c5b386" d="M 129.992188 171.273438 L 139 171.273438 L 139 171.839844 L 136.75 172.402344 L 135.902344 173.808594 L 135.902344 192.945312 L 136.75 194.355469 L 139 195.199219 L 139 195.480469 L 129.992188 195.480469 L 130.558594 194.917969 L 132.527344 194.070312 L 132.808594 193.789062 L 132.808594 172.964844 L 131.683594 172.121094 L 129.992188 171.839844 Z M 129.992188 171.273438 " fill-opacity="1" fill-rule="nonzero"/><path fill="#c5b386" d="M 83.273438 214.054688 L 83.554688 215.179688 L 20.230469 215.179688 L 20.230469 214.335938 Z M 83.273438 214.054688 " fill-opacity="1" fill-rule="nonzero"/><path fill="#c5b386" d="M 286.476562 215.179688 L 349.800781 215.179688 L 349.800781 216.023438 L 286.476562 216.023438 Z M 286.476562 215.179688 " fill-opacity="1" fill-rule="nonzero"/><path fill="#c5b386" d="M 247.636719 232.347656 L 251.015625 232.347656 L 253.265625 233.476562 L 254.953125 236.007812 L 254.953125 239.667969 L 253.265625 242.199219 L 251.015625 243.324219 L 247.636719 243.324219 L 245.386719 242.199219 L 243.976562 240.511719 L 243.414062 237.414062 L 244.261719 234.882812 L 245.386719 233.476562 Z M 248.761719 233.191406 L 246.511719 234.039062 L 245.105469 235.726562 L 244.824219 236.289062 L 244.824219 239.386719 L 245.949219 241.074219 L 246.792969 241.917969 L 248.761719 242.480469 L 251.015625 242.199219 L 252.703125 241.074219 L 253.828125 239.386719 L 253.828125 236.289062 L 252.703125 234.601562 L 251.015625 233.476562 Z M 248.761719 233.191406 " fill-opacity="1" fill-rule="nonzero"/><path fill="#c5b386" d="M 138.4375 211.804688 L 142.378906 211.804688 L 144.066406 212.648438 L 144.347656 213.210938 L 144.347656 214.898438 L 142.941406 216.304688 L 142.941406 216.871094 L 144.910156 219.402344 L 146.597656 219.683594 L 150.539062 211.804688 L 151.382812 212.929688 L 154.480469 219.683594 L 155.042969 220.246094 L 152.507812 220.246094 L 153.070312 219.964844 L 152.507812 217.433594 L 148.570312 217.433594 L 148.007812 219.964844 L 148.570312 220.246094 L 144.910156 220.246094 L 143.503906 219.402344 L 141.25 216.589844 L 140.6875 216.023438 L 142.660156 215.460938 L 142.941406 215.179688 L 142.941406 212.648438 L 139.84375 212.367188 L 140.125 219.683594 L 140.6875 220.246094 L 138.15625 220.246094 L 138.71875 219.683594 L 138.71875 212.367188 Z M 150.257812 213.492188 L 149.132812 216.023438 L 149.132812 216.871094 L 151.945312 216.871094 L 151.664062 215.460938 L 150.820312 213.492188 Z M 150.257812 213.492188 " fill-opacity="1" fill-rule="nonzero"/><path fill="#c5b386" d="M 179.246094 232.347656 L 182.34375 232.347656 L 184.03125 233.476562 L 185.15625 235.445312 L 185.15625 239.949219 L 184.3125 241.636719 L 182.625 243.042969 L 182.0625 243.324219 L 178.402344 243.324219 L 177.839844 243.042969 L 178.121094 241.917969 L 179.246094 242.199219 L 181.214844 242.199219 L 182.90625 241.355469 L 183.75 239.949219 L 183.75 237.695312 L 182.90625 238.539062 L 182.0625 238.820312 L 179.246094 238.820312 L 177.558594 237.695312 L 176.996094 236.570312 L 176.996094 234.601562 L 177.839844 233.191406 Z M 179.808594 233.191406 L 178.402344 234.320312 L 178.121094 236.289062 L 179.246094 237.695312 L 179.808594 237.976562 L 181.78125 237.976562 L 183.1875 237.132812 L 183.75 236.289062 L 183.46875 234.320312 L 182.625 233.476562 L 181.78125 233.191406 Z M 179.808594 233.191406 " fill-opacity="1" fill-rule="nonzero"/><path fill="#c5b386" d="M 165.175781 232.347656 L 167.988281 232.347656 L 169.394531 233.191406 L 170.523438 234.320312 L 171.085938 236.289062 L 171.085938 239.105469 L 170.242188 241.355469 L 168.832031 242.761719 L 167.707031 243.324219 L 164.328125 243.324219 L 163.484375 243.042969 L 163.765625 241.917969 L 164.894531 242.199219 L 167.144531 242.199219 L 168.832031 241.074219 L 169.675781 239.105469 L 169.675781 237.414062 L 168.550781 238.539062 L 167.988281 238.820312 L 165.175781 238.820312 L 163.765625 237.976562 L 162.921875 236.851562 L 162.921875 234.320312 L 164.328125 232.628906 Z M 165.738281 233.191406 L 164.328125 234.039062 L 164.046875 234.601562 L 164.046875 236.851562 L 164.894531 237.695312 L 165.738281 237.976562 L 167.707031 237.976562 L 168.832031 237.414062 L 169.394531 236.570312 L 169.394531 234.601562 L 168.269531 233.476562 L 167.707031 233.191406 Z M 165.738281 233.191406 " fill-opacity="1" fill-rule="nonzero"/><path fill="#c5b386" d="M 151.382812 232.347656 L 154.199219 232.347656 L 156.167969 234.039062 L 157.011719 236.007812 L 157.011719 239.667969 L 156.167969 241.636719 L 154.761719 243.042969 L 154.199219 243.324219 L 151.382812 243.324219 L 149.976562 242.480469 L 148.851562 241.074219 L 148.289062 238.820312 L 148.289062 236.851562 L 149.132812 234.320312 L 150.257812 232.910156 Z M 152.226562 233.191406 L 150.539062 234.039062 L 149.695312 235.445312 L 149.414062 236.851562 L 149.414062 238.820312 L 149.976562 240.792969 L 151.382812 242.199219 L 153.070312 242.480469 L 154.761719 241.636719 L 155.605469 240.511719 L 155.886719 239.667969 L 155.886719 236.007812 L 155.042969 234.320312 L 153.917969 233.476562 Z M 152.226562 233.191406 " fill-opacity="1" fill-rule="nonzero"/><path fill="#c5b386" d="M 221.179688 232.347656 L 223.996094 232.347656 L 225.964844 234.039062 L 226.808594 236.007812 L 226.808594 239.667969 L 225.964844 241.636719 L 223.996094 243.324219 L 221.179688 243.324219 L 219.773438 242.480469 L 218.648438 241.074219 L 218.085938 239.105469 L 218.085938 236.570312 L 218.929688 234.320312 L 220.054688 232.910156 Z M 222.027344 233.191406 L 220.335938 234.039062 L 219.492188 235.445312 L 219.210938 236.851562 L 219.210938 238.820312 L 220.054688 241.355469 L 221.179688 242.199219 L 222.871094 242.480469 L 224.558594 241.636719 L 225.402344 240.511719 L 225.683594 239.667969 L 225.683594 236.289062 L 224.839844 234.320312 L 223.714844 233.476562 Z M 222.027344 233.191406 " fill-opacity="1" fill-rule="nonzero"/><path fill="#c5b386" d="M 192.191406 232.347656 L 198.382812 232.347656 L 198.101562 233.476562 L 193.320312 233.476562 L 193.039062 236.570312 L 196.976562 237.132812 L 198.667969 238.539062 L 198.949219 240.511719 L 198.101562 242.480469 L 196.414062 243.324219 L 193.039062 243.324219 L 191.347656 242.480469 L 191.347656 241.355469 L 193.882812 242.199219 L 196.414062 241.917969 L 197.257812 241.355469 L 197.539062 239.949219 L 197.257812 238.539062 L 196.132812 238.257812 L 191.910156 237.976562 L 191.628906 236.851562 Z M 192.191406 232.347656 " fill-opacity="1" fill-rule="nonzero"/><path fill="#c5b386" d="M 125.773438 232.347656 L 131.964844 232.347656 L 131.683594 233.476562 L 126.898438 233.476562 L 126.617188 236.851562 L 129.429688 236.851562 L 131.402344 237.695312 L 132.246094 238.539062 L 132.527344 240.792969 L 131.683594 242.480469 L 130.273438 243.324219 L 126.617188 243.324219 L 124.929688 242.480469 L 124.929688 241.355469 L 127.742188 242.199219 L 130.273438 241.917969 L 131.121094 240.792969 L 130.839844 238.820312 L 129.710938 238.257812 L 125.492188 237.976562 L 125.210938 237.414062 Z M 125.773438 232.347656 " fill-opacity="1" fill-rule="nonzero"/><path fill="#c5b386" d="M 204.578125 232.347656 L 211.613281 232.347656 L 211.332031 233.757812 L 208.796875 237.132812 L 210.488281 237.414062 L 211.894531 238.820312 L 212.175781 240.792969 L 211.332031 242.480469 L 209.921875 243.324219 L 206.265625 243.324219 L 204.578125 242.480469 L 204.578125 241.355469 L 207.390625 242.199219 L 209.921875 241.917969 L 210.769531 240.511719 L 210.488281 239.105469 L 209.078125 238.257812 L 207.109375 237.976562 L 207.390625 236.851562 L 209.921875 233.476562 L 204.859375 233.476562 Z M 204.578125 232.347656 " fill-opacity="1" fill-rule="nonzero"/><path fill="#c5b386" d="M 228.21875 210.113281 L 231.03125 210.675781 L 233.003906 212.367188 L 233.566406 213.773438 L 233.566406 216.871094 L 232.71875 218.558594 L 231.03125 219.964844 L 228.21875 220.527344 L 225.683594 219.683594 L 224.277344 218.277344 L 223.714844 217.152344 L 223.714844 213.492188 L 224.839844 211.523438 L 226.808594 210.394531 Z M 227.375 210.675781 L 225.683594 211.804688 L 224.839844 213.210938 L 224.558594 216.023438 L 225.121094 217.996094 L 226.246094 219.402344 L 227.65625 219.964844 L 229.625 219.964844 L 231.03125 219.121094 L 232.15625 217.714844 L 232.4375 217.152344 L 232.4375 213.492188 L 231.59375 211.804688 L 229.625 210.675781 Z M 227.375 210.675781 " fill-opacity="1" fill-rule="nonzero"/><path fill="#c5b386" d="M 178.964844 210.394531 L 182.625 210.394531 L 184.3125 211.523438 L 184.59375 213.210938 L 183.75 214.617188 L 183.46875 214.898438 L 184.875 215.742188 L 185.4375 217.152344 L 185.15625 218.839844 L 184.03125 219.964844 L 183.1875 220.246094 L 178.964844 220.246094 L 179.527344 219.683594 L 179.527344 210.960938 Z M 180.652344 210.960938 L 180.652344 219.683594 L 182.90625 219.683594 L 184.3125 218.277344 L 184.3125 216.589844 L 182.90625 215.179688 L 182.0625 214.898438 L 183.46875 213.773438 L 183.46875 212.085938 L 182.34375 210.960938 Z M 180.652344 210.960938 " fill-opacity="1" fill-rule="nonzero"/><path fill="#c5b386" d="M 266.773438 210.394531 L 267.621094 211.523438 L 270.714844 219.121094 L 271.839844 220.246094 L 269.027344 220.246094 L 269.308594 219.121094 L 268.746094 217.714844 L 268.746094 216.871094 L 264.804688 217.152344 L 263.960938 219.964844 L 264.523438 220.246094 L 261.992188 220.246094 L 263.117188 218.839844 L 266.492188 210.675781 Z M 266.492188 212.085938 L 265.085938 215.742188 L 265.085938 216.304688 L 268.464844 216.304688 L 267.058594 212.367188 Z M 266.492188 212.085938 " fill-opacity="1" fill-rule="nonzero"/><path fill="#c5b386" d="M 213.863281 210.394531 L 214.425781 210.394531 L 217.804688 218.558594 L 218.367188 219.683594 L 219.210938 220.246094 L 216.398438 220.246094 L 216.117188 217.714844 L 215.835938 217.152344 L 211.894531 216.871094 L 211.332031 219.683594 L 211.613281 220.246094 L 209.078125 220.246094 L 210.207031 219.121094 L 213.582031 211.242188 Z M 213.863281 212.085938 L 212.457031 215.460938 L 212.457031 216.304688 L 215.550781 216.304688 L 215.269531 214.898438 L 214.144531 212.085938 Z M 213.863281 212.085938 " fill-opacity="1" fill-rule="nonzero"/><path fill="#c5b386" d="M 119.300781 211.523438 L 121.832031 212.085938 L 123.800781 213.773438 L 124.363281 215.460938 L 124.082031 217.714844 L 122.394531 219.683594 L 119.863281 220.527344 L 117.046875 219.964844 L 115.640625 218.839844 L 114.796875 216.871094 L 114.796875 214.898438 L 116.203125 212.648438 L 117.890625 211.804688 Z M 118.453125 212.085938 L 116.765625 213.210938 L 115.921875 214.617188 L 115.921875 217.433594 L 117.046875 219.121094 L 118.453125 219.964844 L 120.425781 219.964844 L 122.113281 219.121094 L 123.238281 217.152344 L 123.238281 214.898438 L 122.113281 212.929688 L 120.707031 212.085938 Z M 118.453125 212.085938 " fill-opacity="1" fill-rule="nonzero"/><path fill="#c5b386" d="M 159.828125 210.394531 L 164.046875 210.394531 L 165.457031 211.242188 L 166.019531 212.085938 L 166.019531 214.054688 L 164.894531 215.460938 L 164.328125 215.742188 L 162.359375 215.742188 L 163.203125 215.179688 L 164.328125 214.617188 L 164.613281 214.054688 L 164.613281 211.804688 L 164.046875 211.242188 L 161.515625 210.960938 L 161.796875 219.683594 L 162.359375 220.246094 L 159.828125 220.246094 L 160.390625 219.964844 L 160.390625 210.675781 Z M 159.828125 210.394531 " fill-opacity="1" fill-rule="nonzero"/><path fill="#c5b386" d="M 167.988281 210.394531 L 169.957031 210.394531 L 169.675781 210.960938 L 169.675781 217.714844 L 170.804688 219.402344 L 171.367188 219.683594 L 173.335938 219.683594 L 174.742188 218.839844 L 175.304688 217.433594 L 175.304688 210.960938 L 175.023438 210.394531 L 176.714844 210.394531 L 176.433594 210.960938 L 176.152344 217.714844 L 175.304688 219.402344 L 173.898438 220.246094 L 172.210938 220.527344 L 169.675781 219.683594 L 168.550781 217.996094 L 168.269531 210.960938 Z M 167.988281 210.394531 " fill-opacity="1" fill-rule="nonzero"/><path fill="#c5b386" d="M 252.140625 210.113281 L 254.953125 210.675781 L 255.800781 211.242188 L 255.800781 212.648438 L 254.390625 211.242188 L 253.546875 210.960938 L 251.296875 210.960938 L 249.890625 211.804688 L 248.761719 213.492188 L 248.761719 217.152344 L 249.890625 218.839844 L 251.296875 219.683594 L 253.546875 219.683594 L 254.953125 218.839844 L 255.800781 217.714844 L 256.363281 216.589844 L 256.363281 218.277344 L 255.234375 219.683594 L 254.109375 220.246094 L 252.140625 220.527344 L 249.890625 219.964844 L 248.199219 218.558594 L 247.355469 216.589844 L 247.355469 214.054688 L 248.480469 211.804688 L 249.890625 210.675781 Z M 252.140625 210.113281 " fill-opacity="1" fill-rule="nonzero"/><path fill="#c5b386" d="M 142.378906 230.097656 L 143.503906 230.378906 L 138.71875 244.167969 L 138.15625 245.015625 L 137.3125 245.015625 L 138.15625 241.917969 Z M 142.378906 230.097656 " fill-opacity="1" fill-rule="nonzero"/><path fill="#c5b386" d="M 114.234375 232.347656 L 117.890625 232.347656 L 117.890625 243.324219 L 116.765625 243.324219 L 116.765625 233.476562 L 114.515625 233.476562 Z M 114.234375 232.347656 " fill-opacity="1" fill-rule="nonzero"/><path fill="#c5b386" d="M 204.011719 210.113281 L 207.109375 210.675781 L 207.671875 210.960938 L 207.953125 212.929688 L 206.828125 211.523438 L 205.703125 210.960938 L 203.167969 210.960938 L 201.480469 212.085938 L 200.636719 214.335938 L 200.636719 216.304688 L 201.480469 218.558594 L 202.605469 219.402344 L 203.449219 219.683594 L 205.421875 219.683594 L 207.109375 218.839844 L 207.953125 217.152344 L 208.234375 217.152344 L 208.234375 218.558594 L 206.828125 219.964844 L 204.011719 220.527344 L 201.480469 219.683594 L 200.074219 218.277344 L 199.511719 217.152344 L 199.230469 215.179688 L 199.792969 212.929688 L 200.636719 211.523438 L 202.605469 210.394531 Z M 204.011719 210.113281 " fill-opacity="1" fill-rule="nonzero"/><path fill="#c5b386" d="M 126.054688 211.804688 L 131.402344 211.804688 L 131.121094 212.929688 L 131.121094 212.367188 L 127.460938 212.367188 L 127.742188 215.460938 L 130.839844 215.460938 L 130.839844 216.589844 L 127.460938 216.304688 L 127.742188 219.402344 L 130.839844 219.402344 L 131.683594 219.121094 L 131.402344 220.246094 L 125.773438 220.246094 L 126.335938 219.683594 L 126.617188 212.085938 Z M 126.054688 211.804688 " fill-opacity="1" fill-rule="nonzero"/><path fill="#c5b386" d="M 272.96875 210.394531 L 275.21875 210.394531 L 274.9375 210.960938 L 274.65625 219.683594 L 277.75 219.402344 L 278.878906 218.558594 L 278.316406 220.246094 L 272.6875 220.246094 L 273.25 219.683594 L 273.25 210.960938 Z M 272.96875 210.394531 " fill-opacity="1" fill-rule="nonzero"/><path fill="#c5b386" d="M 95.375 211.804688 L 100.722656 211.804688 L 100.441406 212.648438 L 97.066406 212.367188 L 97.066406 215.742188 L 99.878906 215.742188 L 100.160156 215.179688 L 100.160156 216.589844 L 97.066406 216.304688 L 97.066406 219.683594 L 100.441406 219.402344 L 101.285156 218.839844 L 101.003906 220.246094 L 95.375 220.246094 L 95.9375 219.683594 L 95.9375 212.367188 Z M 95.375 211.804688 " fill-opacity="1" fill-rule="nonzero"/><path fill="#c5b386" d="M 235.535156 210.394531 L 240.882812 210.394531 L 240.601562 211.523438 L 240.320312 211.242188 L 236.941406 210.960938 L 236.941406 215.179688 L 240.039062 214.898438 L 239.757812 216.023438 L 236.941406 215.742188 L 237.222656 219.964844 L 237.785156 220.246094 L 235.253906 220.246094 L 235.816406 219.683594 L 235.816406 210.960938 Z M 235.535156 210.394531 " fill-opacity="1" fill-rule="nonzero"/><path fill="#c5b386" d="M 258.332031 210.394531 L 260.582031 210.394531 L 260.300781 210.960938 L 260.300781 219.683594 L 260.863281 220.246094 L 258.050781 220.246094 L 258.613281 219.683594 L 258.613281 210.960938 Z M 258.332031 210.394531 " fill-opacity="1" fill-rule="nonzero"/><path fill="#c5b386" d="M 195.007812 210.394531 L 197.257812 210.394531 L 196.976562 210.960938 L 196.976562 219.683594 L 197.539062 220.246094 L 194.726562 220.246094 L 195.289062 219.683594 L 195.289062 210.960938 Z M 195.007812 210.394531 " fill-opacity="1" fill-rule="nonzero"/><path fill="#c5b386" d="M 187.125 210.394531 L 189.660156 210.394531 L 189.097656 210.960938 L 188.816406 219.683594 L 191.910156 219.402344 L 193.039062 218.839844 L 192.753906 220.246094 L 187.125 220.246094 L 187.691406 219.964844 L 187.691406 210.675781 Z M 187.125 210.394531 " fill-opacity="1" fill-rule="nonzero"/><path fill="#c5b386" d="M 95.65625 163.394531 L 96.785156 163.957031 L 97.628906 165.363281 L 93.125 167.898438 L 91.4375 168.742188 L 90.875 168.742188 L 91.4375 167.617188 Z M 95.65625 163.394531 " fill-opacity="1" fill-rule="nonzero"/><path fill="#c5b386" d="M 107.761719 211.804688 L 110.011719 211.804688 L 109.730469 212.367188 L 109.449219 219.683594 L 112.542969 219.402344 L 113.671875 218.839844 L 113.105469 220.246094 L 107.761719 220.246094 L 108.324219 219.964844 L 108.324219 212.085938 Z M 107.761719 211.804688 " fill-opacity="1" fill-rule="nonzero"/><path fill="#c5b386" d="M 87.777344 211.804688 L 90.308594 211.804688 L 89.746094 212.367188 L 89.464844 219.683594 L 92.84375 219.402344 L 93.6875 218.839844 L 93.40625 220.246094 L 87.777344 220.246094 L 88.339844 219.683594 L 88.339844 212.367188 Z M 87.777344 211.804688 " fill-opacity="1" fill-rule="nonzero"/><path fill="#c5b386" d="M 242.851562 210.394531 L 245.386719 210.394531 L 244.824219 210.960938 L 244.824219 219.683594 L 245.386719 220.246094 L 242.851562 220.246094 L 243.414062 219.683594 L 243.414062 210.960938 Z M 242.851562 210.394531 " fill-opacity="1" fill-rule="nonzero"/><path fill="#c5b386" d="M 102.976562 211.804688 L 105.507812 211.804688 L 104.945312 212.085938 L 104.945312 219.402344 L 105.789062 220.246094 L 102.976562 220.246094 L 103.539062 219.683594 L 103.539062 212.367188 Z M 102.976562 211.804688 " fill-opacity="1" fill-rule="nonzero"/><path fill="#c5b386" d="M 133.652344 211.804688 L 136.1875 211.804688 L 135.621094 212.367188 L 135.621094 219.683594 L 136.1875 220.246094 L 133.371094 220.246094 L 134.214844 219.683594 L 134.214844 212.367188 Z M 133.652344 211.804688 " fill-opacity="1" fill-rule="nonzero"/><path fill="#c5b386" d="M 233.285156 238.539062 L 237.222656 238.539062 L 237.222656 239.667969 L 233.285156 239.667969 Z M 233.285156 238.539062 " fill-opacity="1" fill-rule="nonzero"/><path fill="#c5b386" d="M 173.617188 207.863281 L 174.742188 208.144531 L 173.335938 209.269531 L 172.773438 208.988281 Z M 173.617188 207.863281 " fill-opacity="1" fill-rule="nonzero"/></svg>