<svg xmlns="http://www.w3.org/2000/svg" xmlns:xlink="http://www.w3.org/1999/xlink" width="500" zoomAndPan="magnify" viewBox="0 0 375 149.999998" height="200" preserveAspectRatio="xMidYMid meet" version="1.0"><defs><g/></defs><g fill="#ffffff" fill-opacity="1"><g transform="translate(18.621096, 88.605641)"><g><path d="M 4.8125 0 C 4.5625 0 4.347656 -0.0820312 4.171875 -0.25 C 4.003906 -0.425781 3.921875 -0.640625 3.921875 -0.890625 L 3.921875 -50.875 C 3.921875 -51.113281 4.003906 -51.316406 4.171875 -51.484375 C 4.347656 -51.660156 4.5625 -51.75 4.8125 -51.75 L 13.453125 -51.75 C 13.703125 -51.75 13.910156 -51.660156 14.078125 -51.484375 C 14.253906 -51.316406 14.34375 -51.113281 14.34375 -50.875 L 14.34375 -31.203125 C 14.34375 -31.054688 14.40625 -30.957031 14.53125 -30.90625 C 14.65625 -30.851562 14.738281 -30.898438 14.78125 -31.046875 L 28.015625 -51.171875 C 28.265625 -51.554688 28.613281 -51.75 29.0625 -51.75 L 38.59375 -51.75 C 38.9375 -51.75 39.171875 -51.648438 39.296875 -51.453125 C 39.421875 -51.265625 39.382812 -51.019531 39.1875 -50.71875 L 25.515625 -29.5 C 25.460938 -29.351562 25.460938 -29.179688 25.515625 -28.984375 L 40 -1.03125 C 40.09375 -0.832031 40.140625 -0.6875 40.140625 -0.59375 C 40.140625 -0.195312 39.867188 0 39.328125 0 L 29.875 0 C 29.425781 0 29.078125 -0.222656 28.828125 -0.671875 L 18.34375 -20.921875 C 18.289062 -21.066406 18.210938 -21.140625 18.109375 -21.140625 C 18.015625 -21.140625 17.914062 -21.066406 17.8125 -20.921875 L 14.484375 -16.125 C 14.390625 -15.925781 14.34375 -15.773438 14.34375 -15.671875 L 14.34375 -0.890625 C 14.34375 -0.640625 14.253906 -0.425781 14.078125 -0.25 C 13.910156 -0.0820312 13.703125 0 13.453125 0 Z M 4.8125 0 "/></g></g></g><g fill="#ffffff" fill-opacity="1"><g transform="translate(59.876072, 88.605641)"><g><path d="M 19.96875 0.59375 C 16.613281 0.59375 13.65625 -0.0703125 11.09375 -1.40625 C 8.53125 -2.738281 6.546875 -4.632812 5.140625 -7.09375 C 3.734375 -9.5625 3.03125 -12.421875 3.03125 -15.671875 L 3.03125 -36.234375 C 3.03125 -39.429688 3.734375 -42.25 5.140625 -44.6875 C 6.546875 -47.132812 8.53125 -49.019531 11.09375 -50.34375 C 13.65625 -51.675781 16.613281 -52.34375 19.96875 -52.34375 C 23.3125 -52.34375 26.265625 -51.6875 28.828125 -50.375 C 31.398438 -49.070312 33.382812 -47.238281 34.78125 -44.875 C 36.1875 -42.507812 36.890625 -39.75 36.890625 -36.59375 L 36.890625 -36.234375 C 36.890625 -35.984375 36.800781 -35.757812 36.625 -35.5625 C 36.457031 -35.363281 36.25 -35.265625 36 -35.265625 L 27.359375 -34.90625 C 26.765625 -34.90625 26.46875 -35.175781 26.46875 -35.71875 L 26.46875 -36.671875 C 26.46875 -38.691406 25.875 -40.316406 24.6875 -41.546875 C 23.507812 -42.785156 21.9375 -43.40625 19.96875 -43.40625 C 17.988281 -43.40625 16.40625 -42.785156 15.21875 -41.546875 C 14.039062 -40.316406 13.453125 -38.691406 13.453125 -36.671875 L 13.453125 -15.015625 C 13.453125 -12.992188 14.039062 -11.378906 15.21875 -10.171875 C 16.40625 -8.960938 17.988281 -8.359375 19.96875 -8.359375 C 21.9375 -8.359375 23.507812 -8.960938 24.6875 -10.171875 C 25.875 -11.378906 26.46875 -12.992188 26.46875 -15.015625 L 26.46875 -15.96875 C 26.46875 -16.507812 26.765625 -16.78125 27.359375 -16.78125 L 36 -16.421875 C 36.25 -16.421875 36.457031 -16.332031 36.625 -16.15625 C 36.800781 -15.976562 36.890625 -15.769531 36.890625 -15.53125 L 36.890625 -15.3125 C 36.890625 -12.15625 36.1875 -9.367188 34.78125 -6.953125 C 33.382812 -4.535156 31.398438 -2.671875 28.828125 -1.359375 C 26.265625 -0.0546875 23.3125 0.59375 19.96875 0.59375 Z M 19.96875 0.59375 "/></g></g></g><g fill="#ffffff" fill-opacity="1"><g transform="translate(99.515622, 88.605641)"><g/></g></g><g fill="#ffffff" fill-opacity="1"><g transform="translate(114.302349, 88.605641)"><g><path d="M 6.875 0 C 6.382812 0 6.140625 -0.242188 6.140625 -0.734375 L 6.140625 -51.015625 C 6.140625 -51.503906 6.382812 -51.75 6.875 -51.75 L 10.640625 -51.75 C 11.140625 -51.75 11.390625 -51.503906 11.390625 -51.015625 L 11.390625 -4.875 C 11.390625 -4.675781 11.488281 -4.578125 11.6875 -4.578125 L 33.203125 -4.578125 C 33.691406 -4.578125 33.9375 -4.332031 33.9375 -3.84375 L 33.9375 -0.734375 C 33.9375 -0.242188 33.691406 0 33.203125 0 Z M 6.875 0 "/></g></g></g><g fill="#ffffff" fill-opacity="1"><g transform="translate(149.938368, 88.605641)"><g><path d="M 34.609375 -47.90625 C 34.609375 -47.414062 34.359375 -47.171875 33.859375 -47.171875 L 11.6875 -47.171875 C 11.488281 -47.171875 11.390625 -47.070312 11.390625 -46.875 L 11.390625 -28.546875 C 11.390625 -28.347656 11.488281 -28.25 11.6875 -28.25 L 26.625 -28.25 C 27.113281 -28.25 27.359375 -28 27.359375 -27.5 L 27.359375 -24.40625 C 27.359375 -23.90625 27.113281 -23.65625 26.625 -23.65625 L 11.6875 -23.65625 C 11.488281 -23.65625 11.390625 -23.554688 11.390625 -23.359375 L 11.390625 -4.875 C 11.390625 -4.675781 11.488281 -4.578125 11.6875 -4.578125 L 33.859375 -4.578125 C 34.359375 -4.578125 34.609375 -4.332031 34.609375 -3.84375 L 34.609375 -0.734375 C 34.609375 -0.242188 34.359375 0 33.859375 0 L 6.875 0 C 6.382812 0 6.140625 -0.242188 6.140625 -0.734375 L 6.140625 -51.015625 C 6.140625 -51.503906 6.382812 -51.75 6.875 -51.75 L 33.859375 -51.75 C 34.359375 -51.75 34.609375 -51.503906 34.609375 -51.015625 Z M 34.609375 -47.90625 "/></g></g></g><g fill="#ffffff" fill-opacity="1"><g transform="translate(188.162067, 88.605641)"><g><path d="M 6.875 0 C 6.382812 0 6.140625 -0.242188 6.140625 -0.734375 L 6.140625 -51.015625 C 6.140625 -51.503906 6.382812 -51.75 6.875 -51.75 L 10.640625 -51.75 C 11.140625 -51.75 11.390625 -51.503906 11.390625 -51.015625 L 11.390625 -0.734375 C 11.390625 -0.242188 11.140625 0 10.640625 0 Z M 6.875 0 "/></g></g></g><g fill="#ffffff" fill-opacity="1"><g transform="translate(205.684343, 88.605641)"><g><path d="M 6.875 0 C 6.382812 0 6.140625 -0.242188 6.140625 -0.734375 L 6.140625 -51.015625 C 6.140625 -51.503906 6.382812 -51.75 6.875 -51.75 L 10.640625 -51.75 C 11.140625 -51.75 11.390625 -51.503906 11.390625 -51.015625 L 11.390625 -4.875 C 11.390625 -4.675781 11.488281 -4.578125 11.6875 -4.578125 L 33.203125 -4.578125 C 33.691406 -4.578125 33.9375 -4.332031 33.9375 -3.84375 L 33.9375 -0.734375 C 33.9375 -0.242188 33.691406 0 33.203125 0 Z M 6.875 0 "/></g></g></g><g fill="#ffffff" fill-opacity="1"><g transform="translate(241.320362, 88.605641)"><g><path d="M 19.890625 0.59375 C 16.878906 0.59375 14.226562 -0.03125 11.9375 -1.28125 C 9.644531 -2.539062 7.867188 -4.304688 6.609375 -6.578125 C 5.359375 -8.847656 4.734375 -11.460938 4.734375 -14.421875 L 4.734375 -37.265625 C 4.734375 -40.222656 5.359375 -42.847656 6.609375 -45.140625 C 7.867188 -47.429688 9.644531 -49.203125 11.9375 -50.453125 C 14.226562 -51.710938 16.878906 -52.34375 19.890625 -52.34375 C 22.898438 -52.34375 25.550781 -51.710938 27.84375 -50.453125 C 30.132812 -49.203125 31.921875 -47.429688 33.203125 -45.140625 C 34.484375 -42.847656 35.125 -40.222656 35.125 -37.265625 L 35.125 -14.421875 C 35.125 -11.460938 34.484375 -8.847656 33.203125 -6.578125 C 31.921875 -4.304688 30.132812 -2.539062 27.84375 -1.28125 C 25.550781 -0.03125 22.898438 0.59375 19.890625 0.59375 Z M 19.890625 -4 C 22.898438 -4 25.316406 -4.929688 27.140625 -6.796875 C 28.960938 -8.671875 29.875 -11.140625 29.875 -14.203125 L 29.875 -37.40625 C 29.875 -40.519531 28.960938 -43.023438 27.140625 -44.921875 C 25.316406 -46.816406 22.898438 -47.765625 19.890625 -47.765625 C 16.929688 -47.765625 14.539062 -46.816406 12.71875 -44.921875 C 10.894531 -43.023438 9.984375 -40.519531 9.984375 -37.40625 L 9.984375 -14.203125 C 9.984375 -11.140625 10.894531 -8.671875 12.71875 -6.796875 C 14.539062 -4.929688 16.929688 -4 19.890625 -4 Z M 24.40625 -59.15625 C 23.664062 -59.15625 22.960938 -59.300781 22.296875 -59.59375 C 21.628906 -59.882812 20.925781 -60.28125 20.1875 -60.78125 C 19.988281 -60.875 19.65625 -61.082031 19.1875 -61.40625 C 18.71875 -61.726562 18.285156 -61.945312 17.890625 -62.0625 C 17.492188 -62.1875 17.097656 -62.25 16.703125 -62.25 C 15.921875 -62.25 15.257812 -62.113281 14.71875 -61.84375 C 14.175781 -61.570312 13.632812 -61.066406 13.09375 -60.328125 C 12.789062 -59.890625 12.441406 -59.816406 12.046875 -60.109375 L 10.640625 -61.21875 C 10.296875 -61.5625 10.222656 -61.90625 10.421875 -62.25 C 11.847656 -64.769531 13.847656 -66.03125 16.421875 -66.03125 C 17.253906 -66.03125 18.003906 -65.878906 18.671875 -65.578125 C 19.335938 -65.285156 20.085938 -64.867188 20.921875 -64.328125 C 21.066406 -64.222656 21.382812 -64.007812 21.875 -63.6875 C 22.375 -63.375 22.832031 -63.140625 23.25 -62.984375 C 23.664062 -62.835938 24.070312 -62.765625 24.46875 -62.765625 C 25.90625 -62.765625 27.066406 -63.484375 27.953125 -64.921875 C 28.242188 -65.359375 28.585938 -65.429688 28.984375 -65.140625 L 30.390625 -64.109375 C 30.585938 -63.910156 30.6875 -63.710938 30.6875 -63.515625 C 30.6875 -63.316406 30.613281 -63.066406 30.46875 -62.765625 C 29.726562 -61.535156 28.800781 -60.625 27.6875 -60.03125 C 26.582031 -59.445312 25.488281 -59.15625 24.40625 -59.15625 Z M 24.40625 -59.15625 "/></g></g></g><g fill="#ffffff" fill-opacity="1"><g transform="translate(281.170598, 88.605641)"><g><path d="M 34.609375 -47.90625 C 34.609375 -47.414062 34.359375 -47.171875 33.859375 -47.171875 L 11.6875 -47.171875 C 11.488281 -47.171875 11.390625 -47.070312 11.390625 -46.875 L 11.390625 -28.546875 C 11.390625 -28.347656 11.488281 -28.25 11.6875 -28.25 L 26.625 -28.25 C 27.113281 -28.25 27.359375 -28 27.359375 -27.5 L 27.359375 -24.40625 C 27.359375 -23.90625 27.113281 -23.65625 26.625 -23.65625 L 11.6875 -23.65625 C 11.488281 -23.65625 11.390625 -23.554688 11.390625 -23.359375 L 11.390625 -4.875 C 11.390625 -4.675781 11.488281 -4.578125 11.6875 -4.578125 L 33.859375 -4.578125 C 34.359375 -4.578125 34.609375 -4.332031 34.609375 -3.84375 L 34.609375 -0.734375 C 34.609375 -0.242188 34.359375 0 33.859375 0 L 6.875 0 C 6.382812 0 6.140625 -0.242188 6.140625 -0.734375 L 6.140625 -51.015625 C 6.140625 -51.503906 6.382812 -51.75 6.875 -51.75 L 33.859375 -51.75 C 34.359375 -51.75 34.609375 -51.503906 34.609375 -51.015625 Z M 34.609375 -47.90625 "/></g></g></g><g fill="#ffffff" fill-opacity="1"><g transform="translate(319.394286, 88.605641)"><g><path d="M 18.625 0.59375 C 14 0.59375 10.316406 -0.625 7.578125 -3.0625 C 4.835938 -5.507812 3.46875 -8.773438 3.46875 -12.859375 L 3.46875 -14.859375 C 3.46875 -15.347656 3.71875 -15.59375 4.21875 -15.59375 L 7.84375 -15.59375 C 8.332031 -15.59375 8.578125 -15.347656 8.578125 -14.859375 L 8.578125 -13.15625 C 8.578125 -10.394531 9.515625 -8.175781 11.390625 -6.5 C 13.265625 -4.832031 15.753906 -4 18.859375 -4 C 21.765625 -4 24.054688 -4.785156 25.734375 -6.359375 C 27.410156 -7.929688 28.25 -10 28.25 -12.5625 C 28.25 -14.238281 27.851562 -15.691406 27.0625 -16.921875 C 26.269531 -18.160156 25.109375 -19.296875 23.578125 -20.328125 C 22.054688 -21.367188 19.863281 -22.675781 17 -24.25 C 13.945312 -25.875 11.546875 -27.300781 9.796875 -28.53125 C 8.046875 -29.769531 6.628906 -31.273438 5.546875 -33.046875 C 4.460938 -34.828125 3.921875 -37 3.921875 -39.5625 C 3.921875 -43.550781 5.203125 -46.675781 7.765625 -48.9375 C 10.328125 -51.207031 13.753906 -52.34375 18.046875 -52.34375 C 22.628906 -52.34375 26.273438 -51.085938 28.984375 -48.578125 C 31.691406 -46.066406 33.046875 -42.738281 33.046875 -38.59375 L 33.046875 -36.890625 C 33.046875 -36.398438 32.800781 -36.15625 32.3125 -36.15625 L 28.609375 -36.15625 C 28.117188 -36.15625 27.875 -36.398438 27.875 -36.890625 L 27.875 -38.515625 C 27.875 -41.273438 26.984375 -43.503906 25.203125 -45.203125 C 23.429688 -46.910156 20.992188 -47.765625 17.890625 -47.765625 C 15.128906 -47.765625 12.972656 -47.046875 11.421875 -45.609375 C 9.867188 -44.179688 9.09375 -42.164062 9.09375 -39.5625 C 9.09375 -37.882812 9.460938 -36.476562 10.203125 -35.34375 C 10.941406 -34.207031 12.015625 -33.171875 13.421875 -32.234375 C 14.828125 -31.296875 16.984375 -30.039062 19.890625 -28.46875 C 23.242188 -26.59375 25.816406 -25 27.609375 -23.6875 C 29.410156 -22.382812 30.84375 -20.882812 31.90625 -19.1875 C 32.96875 -17.488281 33.5 -15.40625 33.5 -12.9375 C 33.5 -8.800781 32.164062 -5.507812 29.5 -3.0625 C 26.84375 -0.625 23.21875 0.59375 18.625 0.59375 Z M 18.625 0.59375 "/></g></g></g><g fill="#ffffff" fill-opacity="1"><g transform="translate(54.585937, 127.162173)"><g><path d="M 10.34375 -23.921875 C 12.15625 -23.921875 13.625 -23.3125 14.75 -22.09375 C 15.882812 -20.875 16.453125 -19.265625 16.453125 -17.265625 C 16.453125 -15.285156 15.882812 -13.695312 14.75 -12.5 C 13.625 -11.3125 12.15625 -10.71875 10.34375 -10.71875 L 5.25 -10.71875 C 5.164062 -10.71875 5.125 -10.671875 5.125 -10.578125 L 5.125 -0.34375 C 5.125 -0.113281 5.007812 0 4.78125 0 L 3.03125 0 C 2.8125 0 2.703125 -0.113281 2.703125 -0.34375 L 2.703125 -23.578125 C 2.703125 -23.804688 2.8125 -23.921875 3.03125 -23.921875 Z M 10.03125 -12.734375 C 11.238281 -12.734375 12.207031 -13.140625 12.9375 -13.953125 C 13.664062 -14.773438 14.03125 -15.867188 14.03125 -17.234375 C 14.03125 -18.617188 13.664062 -19.726562 12.9375 -20.5625 C 12.207031 -21.394531 11.238281 -21.8125 10.03125 -21.8125 L 5.25 -21.8125 C 5.164062 -21.8125 5.125 -21.765625 5.125 -21.671875 L 5.125 -12.859375 C 5.125 -12.773438 5.164062 -12.734375 5.25 -12.734375 Z M 10.03125 -12.734375 "/></g></g></g><g fill="#ffffff" fill-opacity="1"><g transform="translate(72.222472, 127.162173)"><g><path d="M 8.796875 -17.4375 C 9.484375 -17.4375 10.066406 -17.300781 10.546875 -17.03125 C 10.703125 -16.957031 10.757812 -16.820312 10.71875 -16.625 L 10.3125 -14.84375 C 10.28125 -14.613281 10.140625 -14.546875 9.890625 -14.640625 C 9.523438 -14.796875 9.128906 -14.875 8.703125 -14.875 L 8.296875 -14.84375 C 7.296875 -14.820312 6.460938 -14.390625 5.796875 -13.546875 C 5.140625 -12.703125 4.8125 -11.675781 4.8125 -10.46875 L 4.8125 -0.34375 C 4.8125 -0.113281 4.695312 0 4.46875 0 L 2.734375 0 C 2.503906 0 2.390625 -0.113281 2.390625 -0.34375 L 2.390625 -16.921875 C 2.390625 -17.148438 2.503906 -17.265625 2.734375 -17.265625 L 4.46875 -17.265625 C 4.695312 -17.265625 4.8125 -17.148438 4.8125 -16.921875 L 4.8125 -14.703125 C 4.8125 -14.640625 4.828125 -14.609375 4.859375 -14.609375 C 4.890625 -14.609375 4.921875 -14.628906 4.953125 -14.671875 C 5.335938 -15.535156 5.851562 -16.210938 6.5 -16.703125 C 7.144531 -17.191406 7.910156 -17.4375 8.796875 -17.4375 Z M 8.796875 -17.4375 "/></g></g></g><g fill="#ffffff" fill-opacity="1"><g transform="translate(83.445727, 127.162173)"><g><path d="M 8.21875 -1.84375 C 9.082031 -1.84375 9.828125 -2.0625 10.453125 -2.5 C 11.078125 -2.945312 11.53125 -3.546875 11.8125 -4.296875 C 11.875 -4.503906 12.007812 -4.582031 12.21875 -4.53125 L 13.78125 -4.234375 C 13.894531 -4.210938 13.96875 -4.160156 14 -4.078125 C 14.039062 -3.992188 14.050781 -3.910156 14.03125 -3.828125 C 13.632812 -2.546875 12.925781 -1.539062 11.90625 -0.8125 C 10.882812 -0.09375 9.644531 0.265625 8.1875 0.265625 C 6.53125 0.265625 5.175781 -0.171875 4.125 -1.046875 C 3.082031 -1.921875 2.4375 -3.109375 2.1875 -4.609375 C 2.09375 -5.171875 2.035156 -5.835938 2.015625 -6.609375 C 1.992188 -7.390625 1.984375 -8.035156 1.984375 -8.546875 C 1.984375 -9.054688 1.984375 -9.414062 1.984375 -9.625 C 1.984375 -10.78125 2.023438 -11.722656 2.109375 -12.453125 C 2.296875 -13.972656 2.925781 -15.203125 4 -16.140625 C 5.082031 -17.078125 6.445312 -17.546875 8.09375 -17.546875 C 9.84375 -17.546875 11.257812 -17.039062 12.34375 -16.03125 C 13.4375 -15.03125 14.054688 -13.710938 14.203125 -12.078125 C 14.265625 -11.328125 14.296875 -9.953125 14.296875 -7.953125 C 14.296875 -7.722656 14.179688 -7.609375 13.953125 -7.609375 L 4.53125 -7.609375 C 4.445312 -7.609375 4.40625 -7.5625 4.40625 -7.46875 C 4.40625 -6.769531 4.425781 -5.988281 4.46875 -5.125 C 4.582031 -4.144531 4.972656 -3.351562 5.640625 -2.75 C 6.316406 -2.144531 7.175781 -1.84375 8.21875 -1.84375 Z M 8.125 -15.421875 C 7.101562 -15.421875 6.265625 -15.117188 5.609375 -14.515625 C 4.960938 -13.910156 4.582031 -13.125 4.46875 -12.15625 C 4.425781 -11.195312 4.40625 -10.398438 4.40625 -9.765625 C 4.40625 -9.671875 4.445312 -9.625 4.53125 -9.625 L 11.734375 -9.625 C 11.828125 -9.625 11.875 -9.671875 11.875 -9.765625 C 11.875 -10.421875 11.828125 -11.203125 11.734375 -12.109375 C 11.617188 -13.085938 11.238281 -13.882812 10.59375 -14.5 C 9.945312 -15.113281 9.125 -15.421875 8.125 -15.421875 Z M 8.125 -15.421875 "/></g></g></g><g fill="#ffffff" fill-opacity="1"><g transform="translate(99.478944, 127.162173)"><g><path d="M 7.46875 0.171875 C 5.71875 0.171875 4.304688 -0.25 3.234375 -1.09375 C 2.171875 -1.9375 1.640625 -3.015625 1.640625 -4.328125 L 1.640625 -4.640625 C 1.640625 -4.867188 1.753906 -4.984375 1.984375 -4.984375 L 3.65625 -4.984375 C 3.882812 -4.984375 4 -4.867188 4 -4.640625 L 4 -4.40625 C 4 -3.675781 4.320312 -3.039062 4.96875 -2.5 C 5.613281 -1.96875 6.445312 -1.703125 7.46875 -1.703125 C 8.46875 -1.703125 9.273438 -1.960938 9.890625 -2.484375 C 10.503906 -3.015625 10.8125 -3.675781 10.8125 -4.46875 C 10.8125 -5.039062 10.640625 -5.519531 10.296875 -5.90625 C 9.960938 -6.289062 9.546875 -6.597656 9.046875 -6.828125 C 8.546875 -7.054688 7.851562 -7.316406 6.96875 -7.609375 C 5.894531 -7.972656 5.003906 -8.335938 4.296875 -8.703125 C 3.585938 -9.066406 2.988281 -9.570312 2.5 -10.21875 C 2.019531 -10.863281 1.78125 -11.6875 1.78125 -12.6875 C 1.78125 -14.144531 2.289062 -15.300781 3.3125 -16.15625 C 4.332031 -17.007812 5.6875 -17.4375 7.375 -17.4375 C 9.101562 -17.4375 10.484375 -16.992188 11.515625 -16.109375 C 12.546875 -15.222656 13.0625 -14.082031 13.0625 -12.6875 L 13.0625 -12.625 C 13.0625 -12.394531 12.953125 -12.28125 12.734375 -12.28125 L 11.15625 -12.28125 C 10.925781 -12.28125 10.8125 -12.394531 10.8125 -12.625 L 10.8125 -12.765625 C 10.8125 -13.535156 10.5 -14.175781 9.875 -14.6875 C 9.25 -15.195312 8.414062 -15.453125 7.375 -15.453125 C 6.394531 -15.453125 5.601562 -15.207031 5 -14.71875 C 4.394531 -14.226562 4.09375 -13.597656 4.09375 -12.828125 C 4.09375 -12.035156 4.394531 -11.429688 5 -11.015625 C 5.601562 -10.609375 6.550781 -10.175781 7.84375 -9.71875 C 8.957031 -9.351562 9.878906 -8.988281 10.609375 -8.625 C 11.335938 -8.269531 11.957031 -7.765625 12.46875 -7.109375 C 12.976562 -6.460938 13.234375 -5.628906 13.234375 -4.609375 C 13.234375 -3.148438 12.707031 -1.988281 11.65625 -1.125 C 10.613281 -0.257812 9.21875 0.171875 7.46875 0.171875 Z M 7.46875 0.171875 "/></g></g></g><g fill="#ffffff" fill-opacity="1"><g transform="translate(114.079407, 127.162173)"><g><path d="M 8.21875 -1.84375 C 9.082031 -1.84375 9.828125 -2.0625 10.453125 -2.5 C 11.078125 -2.945312 11.53125 -3.546875 11.8125 -4.296875 C 11.875 -4.503906 12.007812 -4.582031 12.21875 -4.53125 L 13.78125 -4.234375 C 13.894531 -4.210938 13.96875 -4.160156 14 -4.078125 C 14.039062 -3.992188 14.050781 -3.910156 14.03125 -3.828125 C 13.632812 -2.546875 12.925781 -1.539062 11.90625 -0.8125 C 10.882812 -0.09375 9.644531 0.265625 8.1875 0.265625 C 6.53125 0.265625 5.175781 -0.171875 4.125 -1.046875 C 3.082031 -1.921875 2.4375 -3.109375 2.1875 -4.609375 C 2.09375 -5.171875 2.035156 -5.835938 2.015625 -6.609375 C 1.992188 -7.390625 1.984375 -8.035156 1.984375 -8.546875 C 1.984375 -9.054688 1.984375 -9.414062 1.984375 -9.625 C 1.984375 -10.78125 2.023438 -11.722656 2.109375 -12.453125 C 2.296875 -13.972656 2.925781 -15.203125 4 -16.140625 C 5.082031 -17.078125 6.445312 -17.546875 8.09375 -17.546875 C 9.84375 -17.546875 11.257812 -17.039062 12.34375 -16.03125 C 13.4375 -15.03125 14.054688 -13.710938 14.203125 -12.078125 C 14.265625 -11.328125 14.296875 -9.953125 14.296875 -7.953125 C 14.296875 -7.722656 14.179688 -7.609375 13.953125 -7.609375 L 4.53125 -7.609375 C 4.445312 -7.609375 4.40625 -7.5625 4.40625 -7.46875 C 4.40625 -6.769531 4.425781 -5.988281 4.46875 -5.125 C 4.582031 -4.144531 4.972656 -3.351562 5.640625 -2.75 C 6.316406 -2.144531 7.175781 -1.84375 8.21875 -1.84375 Z M 8.125 -15.421875 C 7.101562 -15.421875 6.265625 -15.117188 5.609375 -14.515625 C 4.960938 -13.910156 4.582031 -13.125 4.46875 -12.15625 C 4.425781 -11.195312 4.40625 -10.398438 4.40625 -9.765625 C 4.40625 -9.671875 4.445312 -9.625 4.53125 -9.625 L 11.734375 -9.625 C 11.828125 -9.625 11.875 -9.671875 11.875 -9.765625 C 11.875 -10.421875 11.828125 -11.203125 11.734375 -12.109375 C 11.617188 -13.085938 11.238281 -13.882812 10.59375 -14.5 C 9.945312 -15.113281 9.125 -15.421875 8.125 -15.421875 Z M 8.125 -15.421875 "/></g></g></g><g fill="#ffffff" fill-opacity="1"><g transform="translate(130.112625, 127.162173)"><g><path d="M 9.078125 -17.5 C 10.671875 -17.5 11.925781 -16.992188 12.84375 -15.984375 C 13.769531 -14.972656 14.234375 -13.59375 14.234375 -11.84375 L 14.234375 -0.34375 C 14.234375 -0.113281 14.117188 0 13.890625 0 L 12.15625 0 C 11.925781 0 11.8125 -0.113281 11.8125 -0.34375 L 11.8125 -11.5 C 11.8125 -12.6875 11.503906 -13.628906 10.890625 -14.328125 C 10.273438 -15.035156 9.429688 -15.390625 8.359375 -15.390625 C 7.285156 -15.390625 6.425781 -15.03125 5.78125 -14.3125 C 5.132812 -13.59375 4.8125 -12.632812 4.8125 -11.4375 L 4.8125 -0.34375 C 4.8125 -0.113281 4.695312 0 4.46875 0 L 2.734375 0 C 2.503906 0 2.390625 -0.113281 2.390625 -0.34375 L 2.390625 -16.921875 C 2.390625 -17.148438 2.503906 -17.265625 2.734375 -17.265625 L 4.46875 -17.265625 C 4.695312 -17.265625 4.8125 -17.148438 4.8125 -16.921875 L 4.8125 -15.59375 C 4.8125 -15.550781 4.828125 -15.515625 4.859375 -15.484375 C 4.890625 -15.460938 4.929688 -15.476562 4.984375 -15.53125 C 5.867188 -16.84375 7.234375 -17.5 9.078125 -17.5 Z M 9.078125 -17.5 "/></g></g></g><g fill="#ffffff" fill-opacity="1"><g transform="translate(146.555197, 127.162173)"><g><path d="M 8.15625 0.265625 C 6.519531 0.265625 5.164062 -0.179688 4.09375 -1.078125 C 3.019531 -1.972656 2.375 -3.179688 2.15625 -4.703125 C 2.007812 -5.867188 1.9375 -7.191406 1.9375 -8.671875 C 1.9375 -9.828125 2.007812 -11.132812 2.15625 -12.59375 C 2.351562 -14.070312 3 -15.265625 4.09375 -16.171875 C 5.1875 -17.085938 6.539062 -17.546875 8.15625 -17.546875 C 9.769531 -17.546875 11.128906 -17.113281 12.234375 -16.25 C 13.335938 -15.382812 13.976562 -14.300781 14.15625 -13 L 14.265625 -12.28125 L 14.265625 -12.21875 C 14.265625 -12.125 14.234375 -12.046875 14.171875 -11.984375 C 14.117188 -11.929688 14.046875 -11.90625 13.953125 -11.90625 L 12.21875 -11.8125 C 12.007812 -11.8125 11.882812 -11.910156 11.84375 -12.109375 C 11.84375 -12.316406 11.832031 -12.457031 11.8125 -12.53125 C 11.695312 -13.320312 11.300781 -14 10.625 -14.5625 C 9.957031 -15.132812 9.132812 -15.421875 8.15625 -15.421875 C 7.15625 -15.421875 6.328125 -15.113281 5.671875 -14.5 C 5.023438 -13.882812 4.644531 -13.085938 4.53125 -12.109375 C 4.425781 -11.128906 4.375 -9.972656 4.375 -8.640625 C 4.375 -7.273438 4.425781 -6.101562 4.53125 -5.125 C 4.644531 -4.125 5.023438 -3.328125 5.671875 -2.734375 C 6.328125 -2.140625 7.15625 -1.84375 8.15625 -1.84375 C 9.15625 -1.84375 9.988281 -2.125 10.65625 -2.6875 C 11.332031 -3.257812 11.71875 -3.957031 11.8125 -4.78125 L 11.84375 -5.046875 C 11.882812 -5.296875 12.007812 -5.398438 12.21875 -5.359375 L 13.921875 -5.21875 C 14.128906 -5.175781 14.234375 -5.070312 14.234375 -4.90625 L 14.234375 -4.78125 C 14.234375 -4.6875 14.207031 -4.550781 14.15625 -4.375 C 14 -3.03125 13.367188 -1.921875 12.265625 -1.046875 C 11.160156 -0.171875 9.789062 0.265625 8.15625 0.265625 Z M 8.15625 0.265625 "/></g></g></g><g fill="#ffffff" fill-opacity="1"><g transform="translate(162.281393, 127.162173)"><g><path d="M 3.953125 -20.40625 C 3.390625 -20.40625 2.929688 -20.585938 2.578125 -20.953125 C 2.222656 -21.316406 2.046875 -21.769531 2.046875 -22.3125 C 2.046875 -22.882812 2.222656 -23.347656 2.578125 -23.703125 C 2.929688 -24.054688 3.390625 -24.234375 3.953125 -24.234375 C 4.503906 -24.234375 4.960938 -24.054688 5.328125 -23.703125 C 5.691406 -23.347656 5.875 -22.882812 5.875 -22.3125 C 5.875 -21.769531 5.691406 -21.316406 5.328125 -20.953125 C 4.960938 -20.585938 4.503906 -20.40625 3.953125 -20.40625 Z M 3.03125 0 C 2.8125 0 2.703125 -0.113281 2.703125 -0.34375 L 2.703125 -16.921875 C 2.703125 -17.148438 2.8125 -17.265625 3.03125 -17.265625 L 4.78125 -17.265625 C 5.007812 -17.265625 5.125 -17.148438 5.125 -16.921875 L 5.125 -0.34375 C 5.125 -0.113281 5.007812 0 4.78125 0 Z M 3.03125 0 "/></g></g></g><g fill="#ffffff" fill-opacity="1"><g transform="translate(170.195657, 127.162173)"><g><path d="M 7.921875 -17.546875 C 9.734375 -17.546875 11.15625 -17.019531 12.1875 -15.96875 C 13.226562 -14.925781 13.75 -13.539062 13.75 -11.8125 L 13.75 -0.34375 C 13.75 -0.113281 13.632812 0 13.40625 0 L 11.671875 0 C 11.441406 0 11.328125 -0.113281 11.328125 -0.34375 L 11.328125 -1.5625 C 11.328125 -1.613281 11.3125 -1.648438 11.28125 -1.671875 C 11.25 -1.691406 11.207031 -1.679688 11.15625 -1.640625 C 10.65625 -1.003906 10.019531 -0.523438 9.25 -0.203125 C 8.476562 0.109375 7.613281 0.265625 6.65625 0.265625 C 5.21875 0.265625 3.992188 -0.117188 2.984375 -0.890625 C 1.972656 -1.660156 1.46875 -2.921875 1.46875 -4.671875 C 1.46875 -6.492188 2.050781 -7.875 3.21875 -8.8125 C 4.394531 -9.757812 5.992188 -10.234375 8.015625 -10.234375 L 11.1875 -10.234375 C 11.28125 -10.234375 11.328125 -10.28125 11.328125 -10.375 L 11.328125 -11.671875 C 11.328125 -12.828125 11.035156 -13.738281 10.453125 -14.40625 C 9.878906 -15.082031 9.023438 -15.421875 7.890625 -15.421875 C 6.992188 -15.421875 6.25 -15.195312 5.65625 -14.75 C 5.070312 -14.3125 4.722656 -13.726562 4.609375 -13 C 4.585938 -12.789062 4.460938 -12.6875 4.234375 -12.6875 L 2.359375 -12.796875 C 2.242188 -12.796875 2.15625 -12.828125 2.09375 -12.890625 C 2.039062 -12.960938 2.023438 -13.046875 2.046875 -13.140625 C 2.203125 -14.460938 2.820312 -15.523438 3.90625 -16.328125 C 4.988281 -17.140625 6.328125 -17.546875 7.921875 -17.546875 Z M 7.125 -1.84375 C 8.269531 -1.84375 9.253906 -2.15625 10.078125 -2.78125 C 10.910156 -3.40625 11.328125 -4.273438 11.328125 -5.390625 L 11.328125 -8.15625 C 11.328125 -8.25 11.28125 -8.296875 11.1875 -8.296875 L 8.1875 -8.296875 C 6.894531 -8.296875 5.859375 -7.992188 5.078125 -7.390625 C 4.304688 -6.785156 3.921875 -5.925781 3.921875 -4.8125 C 3.921875 -3.8125 4.21875 -3.066406 4.8125 -2.578125 C 5.40625 -2.085938 6.175781 -1.84375 7.125 -1.84375 Z M 7.125 -1.84375 "/></g></g></g><g fill="#ffffff" fill-opacity="1"><g transform="translate(185.955967, 127.162173)"><g><path d="M 3.953125 -20.40625 C 3.390625 -20.40625 2.929688 -20.585938 2.578125 -20.953125 C 2.222656 -21.316406 2.046875 -21.769531 2.046875 -22.3125 C 2.046875 -22.882812 2.222656 -23.347656 2.578125 -23.703125 C 2.929688 -24.054688 3.390625 -24.234375 3.953125 -24.234375 C 4.503906 -24.234375 4.960938 -24.054688 5.328125 -23.703125 C 5.691406 -23.347656 5.875 -22.882812 5.875 -22.3125 C 5.875 -21.769531 5.691406 -21.316406 5.328125 -20.953125 C 4.960938 -20.585938 4.503906 -20.40625 3.953125 -20.40625 Z M 3.03125 0 C 2.8125 0 2.703125 -0.113281 2.703125 -0.34375 L 2.703125 -16.921875 C 2.703125 -17.148438 2.8125 -17.265625 3.03125 -17.265625 L 4.78125 -17.265625 C 5.007812 -17.265625 5.125 -17.148438 5.125 -16.921875 L 5.125 -0.34375 C 5.125 -0.113281 5.007812 0 4.78125 0 Z M 3.03125 0 "/></g></g></g><g fill="#ffffff" fill-opacity="1"><g transform="translate(193.870232, 127.162173)"><g><path d="M 7.46875 0.171875 C 5.71875 0.171875 4.304688 -0.25 3.234375 -1.09375 C 2.171875 -1.9375 1.640625 -3.015625 1.640625 -4.328125 L 1.640625 -4.640625 C 1.640625 -4.867188 1.753906 -4.984375 1.984375 -4.984375 L 3.65625 -4.984375 C 3.882812 -4.984375 4 -4.867188 4 -4.640625 L 4 -4.40625 C 4 -3.675781 4.320312 -3.039062 4.96875 -2.5 C 5.613281 -1.96875 6.445312 -1.703125 7.46875 -1.703125 C 8.46875 -1.703125 9.273438 -1.960938 9.890625 -2.484375 C 10.503906 -3.015625 10.8125 -3.675781 10.8125 -4.46875 C 10.8125 -5.039062 10.640625 -5.519531 10.296875 -5.90625 C 9.960938 -6.289062 9.546875 -6.597656 9.046875 -6.828125 C 8.546875 -7.054688 7.851562 -7.316406 6.96875 -7.609375 C 5.894531 -7.972656 5.003906 -8.335938 4.296875 -8.703125 C 3.585938 -9.066406 2.988281 -9.570312 2.5 -10.21875 C 2.019531 -10.863281 1.78125 -11.6875 1.78125 -12.6875 C 1.78125 -14.144531 2.289062 -15.300781 3.3125 -16.15625 C 4.332031 -17.007812 5.6875 -17.4375 7.375 -17.4375 C 9.101562 -17.4375 10.484375 -16.992188 11.515625 -16.109375 C 12.546875 -15.222656 13.0625 -14.082031 13.0625 -12.6875 L 13.0625 -12.625 C 13.0625 -12.394531 12.953125 -12.28125 12.734375 -12.28125 L 11.15625 -12.28125 C 10.925781 -12.28125 10.8125 -12.394531 10.8125 -12.625 L 10.8125 -12.765625 C 10.8125 -13.535156 10.5 -14.175781 9.875 -14.6875 C 9.25 -15.195312 8.414062 -15.453125 7.375 -15.453125 C 6.394531 -15.453125 5.601562 -15.207031 5 -14.71875 C 4.394531 -14.226562 4.09375 -13.597656 4.09375 -12.828125 C 4.09375 -12.035156 4.394531 -11.429688 5 -11.015625 C 5.601562 -10.609375 6.550781 -10.175781 7.84375 -9.71875 C 8.957031 -9.351562 9.878906 -8.988281 10.609375 -8.625 C 11.335938 -8.269531 11.957031 -7.765625 12.46875 -7.109375 C 12.976562 -6.460938 13.234375 -5.628906 13.234375 -4.609375 C 13.234375 -3.148438 12.707031 -1.988281 11.65625 -1.125 C 10.613281 -0.257812 9.21875 0.171875 7.46875 0.171875 Z M 7.46875 0.171875 "/></g></g></g><g fill="#ffffff" fill-opacity="1"><g transform="translate(208.470694, 127.162173)"><g/></g></g><g fill="#ffffff" fill-opacity="1"><g transform="translate(215.293341, 127.162173)"><g><path d="M 8.21875 -1.84375 C 9.082031 -1.84375 9.828125 -2.0625 10.453125 -2.5 C 11.078125 -2.945312 11.53125 -3.546875 11.8125 -4.296875 C 11.875 -4.503906 12.007812 -4.582031 12.21875 -4.53125 L 13.78125 -4.234375 C 13.894531 -4.210938 13.96875 -4.160156 14 -4.078125 C 14.039062 -3.992188 14.050781 -3.910156 14.03125 -3.828125 C 13.632812 -2.546875 12.925781 -1.539062 11.90625 -0.8125 C 10.882812 -0.09375 9.644531 0.265625 8.1875 0.265625 C 6.53125 0.265625 5.175781 -0.171875 4.125 -1.046875 C 3.082031 -1.921875 2.4375 -3.109375 2.1875 -4.609375 C 2.09375 -5.171875 2.035156 -5.835938 2.015625 -6.609375 C 1.992188 -7.390625 1.984375 -8.035156 1.984375 -8.546875 C 1.984375 -9.054688 1.984375 -9.414062 1.984375 -9.625 C 1.984375 -10.78125 2.023438 -11.722656 2.109375 -12.453125 C 2.296875 -13.972656 2.925781 -15.203125 4 -16.140625 C 5.082031 -17.078125 6.445312 -17.546875 8.09375 -17.546875 C 9.84375 -17.546875 11.257812 -17.039062 12.34375 -16.03125 C 13.4375 -15.03125 14.054688 -13.710938 14.203125 -12.078125 C 14.265625 -11.328125 14.296875 -9.953125 14.296875 -7.953125 C 14.296875 -7.722656 14.179688 -7.609375 13.953125 -7.609375 L 4.53125 -7.609375 C 4.445312 -7.609375 4.40625 -7.5625 4.40625 -7.46875 C 4.40625 -6.769531 4.425781 -5.988281 4.46875 -5.125 C 4.582031 -4.144531 4.972656 -3.351562 5.640625 -2.75 C 6.316406 -2.144531 7.175781 -1.84375 8.21875 -1.84375 Z M 8.125 -15.421875 C 7.101562 -15.421875 6.265625 -15.117188 5.609375 -14.515625 C 4.960938 -13.910156 4.582031 -13.125 4.46875 -12.15625 C 4.425781 -11.195312 4.40625 -10.398438 4.40625 -9.765625 C 4.40625 -9.671875 4.445312 -9.625 4.53125 -9.625 L 11.734375 -9.625 C 11.828125 -9.625 11.875 -9.671875 11.875 -9.765625 C 11.875 -10.421875 11.828125 -11.203125 11.734375 -12.109375 C 11.617188 -13.085938 11.238281 -13.882812 10.59375 -14.5 C 9.945312 -15.113281 9.125 -15.421875 8.125 -15.421875 Z M 8.125 -15.421875 "/></g></g></g><g fill="#ffffff" fill-opacity="1"><g transform="translate(231.326559, 127.162173)"><g/></g></g><g fill="#ffffff" fill-opacity="1"><g transform="translate(238.149206, 127.162173)"><g><path d="M 9.171875 0.265625 C 7.785156 0.265625 6.5625 -0.0195312 5.5 -0.59375 C 4.445312 -1.175781 3.628906 -1.988281 3.046875 -3.03125 C 2.472656 -4.082031 2.1875 -5.289062 2.1875 -6.65625 L 2.1875 -17.203125 C 2.1875 -18.566406 2.472656 -19.773438 3.046875 -20.828125 C 3.628906 -21.890625 4.445312 -22.707031 5.5 -23.28125 C 6.5625 -23.863281 7.785156 -24.15625 9.171875 -24.15625 C 10.566406 -24.15625 11.789062 -23.863281 12.84375 -23.28125 C 13.90625 -22.707031 14.726562 -21.890625 15.3125 -20.828125 C 15.90625 -19.773438 16.203125 -18.566406 16.203125 -17.203125 L 16.203125 -6.65625 C 16.203125 -5.289062 15.90625 -4.082031 15.3125 -3.03125 C 14.726562 -1.988281 13.90625 -1.175781 12.84375 -0.59375 C 11.789062 -0.0195312 10.566406 0.265625 9.171875 0.265625 Z M 9.171875 -1.84375 C 10.566406 -1.84375 11.679688 -2.273438 12.515625 -3.140625 C 13.359375 -4.003906 13.78125 -5.140625 13.78125 -6.546875 L 13.78125 -17.265625 C 13.78125 -18.703125 13.359375 -19.859375 12.515625 -20.734375 C 11.679688 -21.609375 10.566406 -22.046875 9.171875 -22.046875 C 7.804688 -22.046875 6.703125 -21.609375 5.859375 -20.734375 C 5.023438 -19.859375 4.609375 -18.703125 4.609375 -17.265625 L 4.609375 -6.546875 C 4.609375 -5.140625 5.023438 -4.003906 5.859375 -3.140625 C 6.703125 -2.273438 7.804688 -1.84375 9.171875 -1.84375 Z M 9.171875 -1.84375 "/></g></g></g><g fill="#ffffff" fill-opacity="1"><g transform="translate(256.536244, 127.162173)"><g><path d="M 9.078125 -17.5 C 10.671875 -17.5 11.925781 -16.992188 12.84375 -15.984375 C 13.769531 -14.972656 14.234375 -13.59375 14.234375 -11.84375 L 14.234375 -0.34375 C 14.234375 -0.113281 14.117188 0 13.890625 0 L 12.15625 0 C 11.925781 0 11.8125 -0.113281 11.8125 -0.34375 L 11.8125 -11.5 C 11.8125 -12.6875 11.503906 -13.628906 10.890625 -14.328125 C 10.273438 -15.035156 9.429688 -15.390625 8.359375 -15.390625 C 7.285156 -15.390625 6.425781 -15.03125 5.78125 -14.3125 C 5.132812 -13.59375 4.8125 -12.632812 4.8125 -11.4375 L 4.8125 -0.34375 C 4.8125 -0.113281 4.695312 0 4.46875 0 L 2.734375 0 C 2.503906 0 2.390625 -0.113281 2.390625 -0.34375 L 2.390625 -16.921875 C 2.390625 -17.148438 2.503906 -17.265625 2.734375 -17.265625 L 4.46875 -17.265625 C 4.695312 -17.265625 4.8125 -17.148438 4.8125 -16.921875 L 4.8125 -15.59375 C 4.8125 -15.550781 4.828125 -15.515625 4.859375 -15.484375 C 4.890625 -15.460938 4.929688 -15.476562 4.984375 -15.53125 C 5.867188 -16.84375 7.234375 -17.5 9.078125 -17.5 Z M 9.078125 -17.5 "/></g></g></g><g fill="#ffffff" fill-opacity="1"><g transform="translate(272.978816, 127.162173)"><g><path d="M 2.625 0 C 2.394531 0 2.28125 -0.113281 2.28125 -0.34375 L 2.28125 -23.546875 C 2.28125 -23.773438 2.394531 -23.890625 2.625 -23.890625 L 4.375 -23.890625 C 4.59375 -23.890625 4.703125 -23.773438 4.703125 -23.546875 L 4.703125 -0.34375 C 4.703125 -0.113281 4.59375 0 4.375 0 Z M 2.625 0 "/></g></g></g><g fill="#ffffff" fill-opacity="1"><g transform="translate(280.006152, 127.162173)"><g><path d="M 3.953125 -20.40625 C 3.390625 -20.40625 2.929688 -20.585938 2.578125 -20.953125 C 2.222656 -21.316406 2.046875 -21.769531 2.046875 -22.3125 C 2.046875 -22.882812 2.222656 -23.347656 2.578125 -23.703125 C 2.929688 -24.054688 3.390625 -24.234375 3.953125 -24.234375 C 4.503906 -24.234375 4.960938 -24.054688 5.328125 -23.703125 C 5.691406 -23.347656 5.875 -22.882812 5.875 -22.3125 C 5.875 -21.769531 5.691406 -21.316406 5.328125 -20.953125 C 4.960938 -20.585938 4.503906 -20.40625 3.953125 -20.40625 Z M 3.03125 0 C 2.8125 0 2.703125 -0.113281 2.703125 -0.34375 L 2.703125 -16.921875 C 2.703125 -17.148438 2.8125 -17.265625 3.03125 -17.265625 L 4.78125 -17.265625 C 5.007812 -17.265625 5.125 -17.148438 5.125 -16.921875 L 5.125 -0.34375 C 5.125 -0.113281 5.007812 0 4.78125 0 Z M 3.03125 0 "/></g></g></g><g fill="#ffffff" fill-opacity="1"><g transform="translate(287.920427, 127.162173)"><g><path d="M 9.078125 -17.5 C 10.671875 -17.5 11.925781 -16.992188 12.84375 -15.984375 C 13.769531 -14.972656 14.234375 -13.59375 14.234375 -11.84375 L 14.234375 -0.34375 C 14.234375 -0.113281 14.117188 0 13.890625 0 L 12.15625 0 C 11.925781 0 11.8125 -0.113281 11.8125 -0.34375 L 11.8125 -11.5 C 11.8125 -12.6875 11.503906 -13.628906 10.890625 -14.328125 C 10.273438 -15.035156 9.429688 -15.390625 8.359375 -15.390625 C 7.285156 -15.390625 6.425781 -15.03125 5.78125 -14.3125 C 5.132812 -13.59375 4.8125 -12.632812 4.8125 -11.4375 L 4.8125 -0.34375 C 4.8125 -0.113281 4.695312 0 4.46875 0 L 2.734375 0 C 2.503906 0 2.390625 -0.113281 2.390625 -0.34375 L 2.390625 -16.921875 C 2.390625 -17.148438 2.503906 -17.265625 2.734375 -17.265625 L 4.46875 -17.265625 C 4.695312 -17.265625 4.8125 -17.148438 4.8125 -16.921875 L 4.8125 -15.59375 C 4.8125 -15.550781 4.828125 -15.515625 4.859375 -15.484375 C 4.890625 -15.460938 4.929688 -15.476562 4.984375 -15.53125 C 5.867188 -16.84375 7.234375 -17.5 9.078125 -17.5 Z M 9.078125 -17.5 "/></g></g></g><g fill="#ffffff" fill-opacity="1"><g transform="translate(304.363, 127.162173)"><g><path d="M 8.21875 -1.84375 C 9.082031 -1.84375 9.828125 -2.0625 10.453125 -2.5 C 11.078125 -2.945312 11.53125 -3.546875 11.8125 -4.296875 C 11.875 -4.503906 12.007812 -4.582031 12.21875 -4.53125 L 13.78125 -4.234375 C 13.894531 -4.210938 13.96875 -4.160156 14 -4.078125 C 14.039062 -3.992188 14.050781 -3.910156 14.03125 -3.828125 C 13.632812 -2.546875 12.925781 -1.539062 11.90625 -0.8125 C 10.882812 -0.09375 9.644531 0.265625 8.1875 0.265625 C 6.53125 0.265625 5.175781 -0.171875 4.125 -1.046875 C 3.082031 -1.921875 2.4375 -3.109375 2.1875 -4.609375 C 2.09375 -5.171875 2.035156 -5.835938 2.015625 -6.609375 C 1.992188 -7.390625 1.984375 -8.035156 1.984375 -8.546875 C 1.984375 -9.054688 1.984375 -9.414062 1.984375 -9.625 C 1.984375 -10.78125 2.023438 -11.722656 2.109375 -12.453125 C 2.296875 -13.972656 2.925781 -15.203125 4 -16.140625 C 5.082031 -17.078125 6.445312 -17.546875 8.09375 -17.546875 C 9.84375 -17.546875 11.257812 -17.039062 12.34375 -16.03125 C 13.4375 -15.03125 14.054688 -13.710938 14.203125 -12.078125 C 14.265625 -11.328125 14.296875 -9.953125 14.296875 -7.953125 C 14.296875 -7.722656 14.179688 -7.609375 13.953125 -7.609375 L 4.53125 -7.609375 C 4.445312 -7.609375 4.40625 -7.5625 4.40625 -7.46875 C 4.40625 -6.769531 4.425781 -5.988281 4.46875 -5.125 C 4.582031 -4.144531 4.972656 -3.351562 5.640625 -2.75 C 6.316406 -2.144531 7.175781 -1.84375 8.21875 -1.84375 Z M 8.125 -15.421875 C 7.101562 -15.421875 6.265625 -15.117188 5.609375 -14.515625 C 4.960938 -13.910156 4.582031 -13.125 4.46875 -12.15625 C 4.425781 -11.195312 4.40625 -10.398438 4.40625 -9.765625 C 4.40625 -9.671875 4.445312 -9.625 4.53125 -9.625 L 11.734375 -9.625 C 11.828125 -9.625 11.875 -9.671875 11.875 -9.765625 C 11.875 -10.421875 11.828125 -11.203125 11.734375 -12.109375 C 11.617188 -13.085938 11.238281 -13.882812 10.59375 -14.5 C 9.945312 -15.113281 9.125 -15.421875 8.125 -15.421875 Z M 8.125 -15.421875 "/></g></g></g></svg>